<mxfile host="65bd71144e">
    <diagram id="5KNGQFB9yx0ZGZ-pg9CA" name="Page-1">
        <mxGraphModel dx="770" dy="402" grid="1" gridSize="10" guides="1" tooltips="1" connect="1" arrows="1" fold="1" page="1" pageScale="1" pageWidth="850" pageHeight="1100" math="0" shadow="0">
            <root>
                <mxCell id="0"/>
                <mxCell id="1" parent="0"/>
                <mxCell id="6" style="edgeStyle=none;hachureGap=4;html=1;entryX=1;entryY=0.5;entryDx=0;entryDy=0;fontFamily=Verdana;fontSize=15;strokeWidth=2;" edge="1" parent="1" source="4" target="5">
                    <mxGeometry relative="1" as="geometry"/>
                </mxCell>
                <mxCell id="9" style="edgeStyle=none;html=1;entryX=0.5;entryY=1;entryDx=0;entryDy=0;strokeWidth=2;fontSize=13;" edge="1" parent="1" source="4" target="7">
                    <mxGeometry relative="1" as="geometry"/>
                </mxCell>
                <mxCell id="11" style="edgeStyle=none;html=1;exitX=0.75;exitY=0;exitDx=0;exitDy=0;entryX=0;entryY=1;entryDx=0;entryDy=0;strokeWidth=2;fontSize=13;endArrow=none;endFill=0;" edge="1" parent="1" source="4" target="10">
                    <mxGeometry relative="1" as="geometry"/>
                </mxCell>
                <mxCell id="13" style="edgeStyle=none;html=1;exitX=1;exitY=0.75;exitDx=0;exitDy=0;strokeWidth=2;fontSize=13;endArrow=classic;endFill=1;startArrow=none;startFill=0;" edge="1" parent="1" source="4" target="12">
                    <mxGeometry relative="1" as="geometry"/>
                </mxCell>
                <mxCell id="15" style="edgeStyle=none;html=1;exitX=1;exitY=0.5;exitDx=0;exitDy=0;entryX=0;entryY=0.5;entryDx=0;entryDy=0;strokeWidth=1;fontSize=10;startArrow=none;startFill=0;endArrow=none;endFill=0;" edge="1" parent="1" source="4" target="14">
                    <mxGeometry relative="1" as="geometry"/>
                </mxCell>
                <mxCell id="39" style="edgeStyle=none;html=1;exitX=0;exitY=0.5;exitDx=0;exitDy=0;strokeWidth=2;fontSize=11;startArrow=none;startFill=0;endArrow=classic;endFill=1;" edge="1" parent="1" source="4" target="38">
                    <mxGeometry relative="1" as="geometry"/>
                </mxCell>
                <mxCell id="46" style="edgeStyle=none;html=1;exitX=1;exitY=1;exitDx=0;exitDy=0;entryX=0.144;entryY=0.275;entryDx=0;entryDy=0;entryPerimeter=0;strokeWidth=2;fontSize=11;startArrow=none;startFill=0;endArrow=classic;endFill=1;" edge="1" parent="1" source="4" target="45">
                    <mxGeometry relative="1" as="geometry"/>
                </mxCell>
                <mxCell id="4" value="&lt;font style=&quot;font-size: 15px;&quot; face=&quot;Verdana&quot;&gt;Users&lt;/font&gt;" style="rounded=0;whiteSpace=wrap;html=1;hachureGap=4;fontFamily=Architects Daughter;fontSource=https%3A%2F%2Ffonts.googleapis.com%2Fcss%3Ffamily%3DArchitects%2BDaughter;fontSize=20;" vertex="1" parent="1">
                    <mxGeometry x="260" y="130" width="100" height="50" as="geometry"/>
                </mxCell>
                <mxCell id="5" value="&lt;u&gt;id&lt;/u&gt;" style="ellipse;whiteSpace=wrap;html=1;hachureGap=4;fontFamily=Verdana;fontSize=15;" vertex="1" parent="1">
                    <mxGeometry x="160" y="30" width="70" height="50" as="geometry"/>
                </mxCell>
                <mxCell id="7" value="&lt;font style=&quot;font-size: 13px;&quot;&gt;username&lt;/font&gt;" style="ellipse;whiteSpace=wrap;html=1;hachureGap=4;fontFamily=Verdana;fontSize=15;fontStyle=4" vertex="1" parent="1">
                    <mxGeometry x="290" width="70" height="50" as="geometry"/>
                </mxCell>
                <mxCell id="10" value="&lt;span style=&quot;font-size: 13px;&quot;&gt;password&lt;/span&gt;" style="ellipse;whiteSpace=wrap;html=1;hachureGap=4;fontFamily=Verdana;fontSize=15;fontStyle=0" vertex="1" parent="1">
                    <mxGeometry x="415" y="20" width="70" height="50" as="geometry"/>
                </mxCell>
                <mxCell id="12" value="&lt;u&gt;email&lt;/u&gt;" style="ellipse;whiteSpace=wrap;html=1;hachureGap=4;fontFamily=Verdana;fontSize=15;" vertex="1" parent="1">
                    <mxGeometry x="520" y="130" width="70" height="50" as="geometry"/>
                </mxCell>
                <mxCell id="14" value="address" style="ellipse;whiteSpace=wrap;html=1;hachureGap=4;fontFamily=Verdana;fontSize=15;" vertex="1" parent="1">
                    <mxGeometry x="480" y="60" width="70" height="50" as="geometry"/>
                </mxCell>
                <mxCell id="19" style="edgeStyle=none;html=1;exitX=0.5;exitY=0;exitDx=0;exitDy=0;entryX=0.5;entryY=1;entryDx=0;entryDy=0;strokeWidth=2;fontSize=10;startArrow=none;startFill=0;endArrow=classic;endFill=1;" edge="1" parent="1" source="17" target="18">
                    <mxGeometry relative="1" as="geometry"/>
                </mxCell>
                <mxCell id="22" style="edgeStyle=none;html=1;exitX=0.75;exitY=1;exitDx=0;exitDy=0;entryX=0;entryY=0;entryDx=0;entryDy=0;strokeWidth=2;fontSize=10;startArrow=none;startFill=0;endArrow=none;endFill=0;" edge="1" parent="1" source="17" target="21">
                    <mxGeometry relative="1" as="geometry"/>
                </mxCell>
                <mxCell id="25" style="edgeStyle=none;html=1;exitX=0.5;exitY=1;exitDx=0;exitDy=0;entryX=0.5;entryY=0;entryDx=0;entryDy=0;strokeWidth=2;fontSize=10;startArrow=none;startFill=0;endArrow=none;endFill=0;" edge="1" parent="1" source="17" target="23">
                    <mxGeometry relative="1" as="geometry"/>
                </mxCell>
                <mxCell id="27" style="edgeStyle=none;html=1;exitX=1;exitY=1;exitDx=0;exitDy=0;entryX=0;entryY=0;entryDx=0;entryDy=0;strokeWidth=2;fontSize=12;startArrow=none;startFill=0;endArrow=classic;endFill=1;" edge="1" parent="1" source="17" target="26">
                    <mxGeometry relative="1" as="geometry"/>
                </mxCell>
                <mxCell id="43" style="edgeStyle=none;html=1;exitX=1;exitY=0.5;exitDx=0;exitDy=0;entryX=0;entryY=0;entryDx=0;entryDy=0;strokeWidth=2;fontSize=11;startArrow=none;startFill=0;endArrow=classic;endFill=1;" edge="1" parent="1" source="17" target="41">
                    <mxGeometry relative="1" as="geometry"/>
                </mxCell>
                <mxCell id="17" value="&lt;font style=&quot;font-size: 15px;&quot; face=&quot;Verdana&quot;&gt;account&lt;/font&gt;" style="rounded=0;whiteSpace=wrap;html=1;hachureGap=4;fontFamily=Architects Daughter;fontSource=https%3A%2F%2Ffonts.googleapis.com%2Fcss%3Ffamily%3DArchitects%2BDaughter;fontSize=20;" vertex="1" parent="1">
                    <mxGeometry x="10" y="250" width="100" height="50" as="geometry"/>
                </mxCell>
                <mxCell id="18" value="&lt;u&gt;id&lt;/u&gt;" style="ellipse;whiteSpace=wrap;html=1;hachureGap=4;fontFamily=Verdana;fontSize=15;" vertex="1" parent="1">
                    <mxGeometry x="30" y="150" width="70" height="50" as="geometry"/>
                </mxCell>
                <mxCell id="21" value="balance" style="ellipse;whiteSpace=wrap;html=1;hachureGap=4;fontFamily=Verdana;fontSize=15;" vertex="1" parent="1">
                    <mxGeometry x="100" y="400" width="70" height="50" as="geometry"/>
                </mxCell>
                <mxCell id="23" value="account type" style="ellipse;whiteSpace=wrap;html=1;hachureGap=4;fontFamily=Verdana;fontSize=15;" vertex="1" parent="1">
                    <mxGeometry x="25" y="340" width="70" height="50" as="geometry"/>
                </mxCell>
                <mxCell id="26" value="&lt;u style=&quot;font-size: 12px;&quot;&gt;&lt;font style=&quot;font-size: 12px;&quot;&gt;account numbe&lt;/font&gt;&lt;span style=&quot;&quot;&gt;r&lt;/span&gt;&lt;/u&gt;" style="ellipse;whiteSpace=wrap;html=1;hachureGap=4;fontFamily=Verdana;fontSize=15;" vertex="1" parent="1">
                    <mxGeometry x="115" y="340" width="70" height="50" as="geometry"/>
                </mxCell>
                <mxCell id="33" style="edgeStyle=none;html=1;exitX=0.5;exitY=0;exitDx=0;exitDy=0;entryX=0.5;entryY=1;entryDx=0;entryDy=0;strokeWidth=2;fontSize=12;startArrow=none;startFill=0;endArrow=classic;endFill=1;" edge="1" parent="1" source="29" target="32">
                    <mxGeometry relative="1" as="geometry"/>
                </mxCell>
                <mxCell id="35" value="" style="edgeStyle=none;html=1;strokeWidth=1;fontSize=9;startArrow=none;startFill=0;endArrow=classic;endFill=1;exitX=1;exitY=0.5;exitDx=0;exitDy=0;" edge="1" parent="1" source="29" target="34">
                    <mxGeometry relative="1" as="geometry"/>
                </mxCell>
                <mxCell id="37" style="edgeStyle=none;html=1;exitX=0.75;exitY=0;exitDx=0;exitDy=0;entryX=0;entryY=1;entryDx=0;entryDy=0;strokeWidth=2;fontSize=11;startArrow=none;startFill=0;endArrow=classic;endFill=1;" edge="1" parent="1" source="29" target="36">
                    <mxGeometry relative="1" as="geometry"/>
                </mxCell>
                <mxCell id="29" value="&lt;font style=&quot;font-size: 15px;&quot; face=&quot;Verdana&quot;&gt;transactions&lt;br&gt;&lt;/font&gt;" style="rounded=0;whiteSpace=wrap;html=1;hachureGap=4;fontFamily=Architects Daughter;fontSource=https%3A%2F%2Ffonts.googleapis.com%2Fcss%3Ffamily%3DArchitects%2BDaughter;fontSize=20;" vertex="1" parent="1">
                    <mxGeometry x="450" y="400" width="100" height="50" as="geometry"/>
                </mxCell>
                <mxCell id="32" value="&lt;u&gt;id&lt;/u&gt;" style="ellipse;whiteSpace=wrap;html=1;hachureGap=4;fontFamily=Verdana;fontSize=15;" vertex="1" parent="1">
                    <mxGeometry x="570" y="280" width="70" height="50" as="geometry"/>
                </mxCell>
                <mxCell id="34" value="&lt;font style=&quot;font-size: 9px;&quot;&gt;transaction type&lt;/font&gt;" style="ellipse;whiteSpace=wrap;html=1;hachureGap=4;fontFamily=Verdana;fontSize=15;" vertex="1" parent="1">
                    <mxGeometry x="630" y="420" width="70" height="50" as="geometry"/>
                </mxCell>
                <mxCell id="36" value="&lt;font style=&quot;font-size: 11px;&quot;&gt;timestamp&lt;/font&gt;" style="ellipse;whiteSpace=wrap;html=1;hachureGap=4;fontFamily=Verdana;fontSize=15;" vertex="1" parent="1">
                    <mxGeometry x="650" y="320" width="70" height="50" as="geometry"/>
                </mxCell>
                <mxCell id="40" style="edgeStyle=none;html=1;exitX=0;exitY=1;exitDx=0;exitDy=0;entryX=0.675;entryY=-0.04;entryDx=0;entryDy=0;entryPerimeter=0;strokeWidth=2;fontSize=11;startArrow=none;startFill=0;endArrow=none;endFill=0;" edge="1" parent="1" source="38" target="17">
                    <mxGeometry relative="1" as="geometry"/>
                </mxCell>
                <mxCell id="38" value="has" style="rhombus;whiteSpace=wrap;html=1;fontSize=11;" vertex="1" parent="1">
                    <mxGeometry x="130" y="150" width="80" height="80" as="geometry"/>
                </mxCell>
                <mxCell id="44" style="edgeStyle=none;html=1;exitX=1;exitY=0.5;exitDx=0;exitDy=0;entryX=0;entryY=0.5;entryDx=0;entryDy=0;strokeWidth=2;fontSize=11;startArrow=none;startFill=0;endArrow=none;endFill=0;" edge="1" parent="1" source="41" target="29">
                    <mxGeometry relative="1" as="geometry"/>
                </mxCell>
                <mxCell id="41" value="makes" style="rhombus;whiteSpace=wrap;html=1;fontSize=11;" vertex="1" parent="1">
                    <mxGeometry x="250" y="350" width="80" height="80" as="geometry"/>
                </mxCell>
                <mxCell id="42" style="edgeStyle=none;html=1;exitX=1;exitY=0.5;exitDx=0;exitDy=0;entryX=1;entryY=0.2;entryDx=0;entryDy=0;entryPerimeter=0;strokeWidth=2;fontSize=11;startArrow=none;startFill=0;endArrow=none;endFill=0;" edge="1" parent="1" source="26" target="26">
                    <mxGeometry relative="1" as="geometry"/>
                </mxCell>
                <mxCell id="47" style="edgeStyle=none;html=1;exitX=0.5;exitY=1;exitDx=0;exitDy=0;entryX=0.25;entryY=0;entryDx=0;entryDy=0;strokeWidth=2;fontSize=11;startArrow=none;startFill=0;endArrow=none;endFill=0;" edge="1" parent="1" source="45" target="29">
                    <mxGeometry relative="1" as="geometry"/>
                </mxCell>
                <mxCell id="49" style="edgeStyle=none;html=1;exitX=1;exitY=0;exitDx=0;exitDy=0;entryX=0.054;entryY=0.824;entryDx=0;entryDy=0;entryPerimeter=0;strokeWidth=2;fontSize=10;startArrow=none;startFill=0;endArrow=classic;endFill=1;" edge="1" parent="1" source="45" target="48">
                    <mxGeometry relative="1" as="geometry"/>
                </mxCell>
                <mxCell id="45" value="makes" style="rhombus;whiteSpace=wrap;html=1;fontSize=11;" vertex="1" parent="1">
                    <mxGeometry x="425" y="220" width="80" height="80" as="geometry"/>
                </mxCell>
                <mxCell id="48" value="&lt;u&gt;&lt;font style=&quot;font-size: 10px;&quot;&gt;transaction id&lt;/font&gt;&lt;/u&gt;" style="ellipse;whiteSpace=wrap;html=1;hachureGap=4;fontFamily=Verdana;fontSize=15;" vertex="1" parent="1">
                    <mxGeometry x="530" y="220" width="70" height="50" as="geometry"/>
                </mxCell>
            </root>
        </mxGraphModel>
    </diagram>
</mxfile>